<svg id="_x31__x2C_5" enable-background="new 0 0 24 24" height="512" viewBox="0 0 24 24" width="512" xmlns="http://www.w3.org/2000/svg"><path d="m21.25 3.444c0-1.405-1.139-2.544-2.544-2.544h-13.412c-1.405 0-2.544 1.139-2.544 2.544v17.112c0 1.405 1.139 2.544 2.544 2.544h13.412c1.405 0 2.544-1.139 2.544-2.544z" fill="#eceff1"/><circle cx="7" cy="20" r="1"/><path d="m11.25 21h-1.5c-.414 0-.75-.336-.75-.75s.336-.75.75-.75h1.5c.138 0 .25-.112.25-.25v-3.5c0-.414.336-.75.75-.75s.75.336.75.75v3.5c0 .965-.785 1.75-1.75 1.75z"/><path d="m16.125 21h-1.375c-.414 0-.75-.336-.75-.75s.336-.75.75-.75h1.375c.207 0 .375-.168.375-.375s-.168-.375-.375-.375h-.25c-1.034 0-1.875-.841-1.875-1.875s.841-1.875 1.875-1.875h1.375c.414 0 .75.336.75.75s-.336.75-.75.75h-1.375c-.207 0-.375.168-.375.375s.168.375.375.375h.25c1.034 0 1.875.841 1.875 1.875s-.841 1.875-1.875 1.875z"/><path d="m19.25 24h-14.5c-1.517 0-2.75-1.233-2.75-2.75v-18.5c0-1.517 1.233-2.75 2.75-2.75h14.5c1.517 0 2.75 1.233 2.75 2.75v18.5c0 1.517-1.233 2.75-2.75 2.75zm-14.5-22.5c-.689 0-1.25.561-1.25 1.25v18.5c0 .689.561 1.25 1.25 1.25h14.5c.689 0 1.25-.561 1.25-1.25v-18.5c0-.689-.561-1.25-1.25-1.25z"/></svg>